# Blender 4.2.1 LTS
# www.blender.org
mtllib cereales.mtl
o CHEERIOS
v 0.154139 0.060102 0.742408
v 0.154139 3.751374 0.742408
v 0.154139 0.060102 0.119330
v 0.154139 3.751374 0.119330
v 2.918745 0.060102 0.742408
v 2.918745 3.751374 0.742408
v 2.918745 0.060102 0.119330
v 2.918745 3.751374 0.119330
vn -1.0000 -0.0000 -0.0000
vn -0.0000 -0.0000 -1.0000
vn 1.0000 -0.0000 -0.0000
vn -0.0000 -0.0000 1.0000
vn -0.0000 -1.0000 -0.0000
vn -0.0000 1.0000 -0.0000
vt 0.516902 0.009708
vt 0.516902 0.997386
vt 0.438166 0.997386
vt 0.438166 0.009708
vt 0.950117 0.004360
vt 0.950117 0.995005
vt 0.675915 0.995005
vt 0.675915 0.004360
vt 0.772143 0.299873
vt 0.772143 0.348127
vt 0.723888 0.348127
vt 0.723888 0.299873
vt 0.279878 0.001899
vt 0.279878 0.997635
vt 0.000699 0.997635
vt 0.000699 0.001899
vt 0.876175 0.341175
vt 0.900492 0.341175
vt 0.900492 0.365492
vt 0.876175 0.365492
vt 0.851857 0.365492
vt 0.876175 0.389810
vt 0.851857 0.389810
s 0
usemtl CHERRIOS
f 1/1/1 2/2/1 4/3/1 3/4/1
f 3/5/2 4/6/2 8/7/2 7/8/2
f 7/9/3 8/10/3 6/11/3 5/12/3
f 5/13/4 6/14/4 2/15/4 1/16/4
f 3/17/5 7/18/5 5/19/5 1/20/5
f 8/21/6 4/20/6 2/22/6 6/23/6
o FROSTED_FLAKES
v 3.849396 0.061671 0.663461
v 3.849396 3.752943 0.663461
v 4.108054 0.061671 0.096608
v 4.108054 3.752943 0.096608
v 6.364530 0.061671 1.811133
v 6.364530 3.752943 1.811133
v 6.623188 0.061671 1.244280
v 6.623188 3.752943 1.244280
vn -0.9098 -0.0000 -0.4151
vn 0.4151 -0.0000 -0.9098
vn 0.9098 -0.0000 0.4151
vn -0.4151 -0.0000 0.9098
vn -0.0000 -1.0000 -0.0000
vn -0.0000 1.0000 -0.0000
vt 0.486010 0.141950
vt 0.486010 0.865144
vt 0.340358 0.865144
vt 0.340358 0.141950
vt 0.835229 0.137788
vt 0.835229 0.871577
vt 0.507662 0.871577
vt 0.507662 0.137788
vt 0.986528 0.146709
vt 0.986528 0.888716
vt 0.846780 0.888716
vt 0.846780 0.146709
vt 0.331778 0.144108
vt 0.331778 0.871299
vt 0.010088 0.871299
vt 0.010088 0.144108
vt 0.931055 0.400723
vt 0.959118 0.400723
vt 0.959118 0.428786
vt 0.931055 0.428786
vt 0.022111 0.883399
vt 0.311414 0.883399
vt 0.311414 0.964884
vt 0.022111 0.964884
s 0
usemtl FROSTED_FLAKES
f 9/24/7 10/25/7 12/26/7 11/27/7
f 11/28/8 12/29/8 16/30/8 15/31/8
f 15/32/9 16/33/9 14/34/9 13/35/9
f 13/36/10 14/37/10 10/38/10 9/39/10
f 11/40/11 15/41/11 13/42/11 9/43/11
f 16/44/12 12/45/12 10/46/12 14/47/12
o LUCKY_CHARMS
v -3.319158 0.060102 1.438411
v -3.319158 3.751374 1.438411
v -3.499528 0.060102 0.842011
v -3.499528 3.751374 0.842011
v -0.672922 0.060102 0.638107
v -0.672922 3.751374 0.638107
v -0.853292 0.060102 0.041707
v -0.853292 3.751374 0.041707
vn -0.9572 -0.0000 0.2895
vn -0.2895 -0.0000 -0.9572
vn 0.9572 -0.0000 -0.2895
vn 0.2895 -0.0000 0.9572
vn -0.0000 -1.0000 -0.0000
vn -0.0000 1.0000 -0.0000
vt 0.994403 0.121704
vt 0.994403 0.855458
vt 0.878553 0.855458
vt 0.878553 0.121704
vt 0.874417 0.113480
vt 0.874417 0.858458
vt 0.502833 0.858458
vt 0.502833 0.113480
vt 0.495265 0.126920
vt 0.495265 0.853053
vt 0.382976 0.853053
vt 0.382976 0.126920
vt 0.376178 0.111241
vt 0.376178 0.859151
vt 0.005390 0.859151
vt 0.005390 0.111241
vt 0.875835 0.110293
vt 0.509779 0.108785
vt 0.508804 0.045270
vt 0.876793 0.046056
vt 0.505706 0.859442
vt 0.875455 0.860299
vt 0.873608 0.972160
vt 0.510017 0.972160
s 0
usemtl lucky_charsm
f 17/48/13 18/49/13 20/50/13 19/51/13
f 19/52/14 20/53/14 24/54/14 23/55/14
f 23/56/15 24/57/15 22/58/15 21/59/15
f 21/60/16 22/61/16 18/62/16 17/63/16
f 19/64/17 23/65/17 21/66/17 17/67/17
f 24/68/18 20/69/18 18/70/18 22/71/18
o LIFE_CEREAL
v -6.761077 0.060102 2.305330
v -6.761077 3.751374 2.305330
v -6.837294 0.060102 1.686930
v -6.837294 3.751374 1.686930
v -4.017232 0.060102 1.967155
v -4.017232 3.751374 1.967155
v -4.093449 0.060102 1.348756
v -4.093449 3.751374 1.348756
vn -0.9925 -0.0000 0.1223
vn -0.1223 -0.0000 -0.9925
vn 0.9925 -0.0000 -0.1223
vn 0.1223 -0.0000 0.9925
vn -0.0000 -1.0000 -0.0000
vn -0.0000 1.0000 -0.0000
vt 0.991582 0.126446
vt 0.991455 0.847933
vt 0.870570 0.846548
vt 0.869920 0.126883
vt 0.866160 0.127654
vt 0.866160 0.851143
vt 0.504055 0.851143
vt 0.504055 0.127654
vt 0.493871 0.129258
vt 0.493871 0.848534
vt 0.373717 0.848534
vt 0.373717 0.129258
vt 0.370717 0.127108
vt 0.370717 0.846042
vt 0.007618 0.846042
vt 0.007618 0.127108
vt 0.004212 0.013597
vt 0.367420 0.013597
vt 0.367420 0.121416
vt 0.004212 0.121416
vt 0.505243 0.856353
vt 0.864342 0.856353
vt 0.864342 0.971874
vt 0.505243 0.971874
s 0
usemtl LIFE
f 25/72/19 26/73/19 28/74/19 27/75/19
f 27/76/20 28/77/20 32/78/20 31/79/20
f 31/80/21 32/81/21 30/82/21 29/83/21
f 29/84/22 30/85/22 26/86/22 25/87/22
f 27/88/23 31/89/23 29/90/23 25/91/23
f 32/92/24 28/93/24 26/94/24 30/95/24
